{
  "asset": { "version": "2.0" },
  "extensionsUsed": ["KHR_lights_punctual"],
  "extensions": {
    "KHR_lights_punctual": {
      "lights": [
        {
          "type": "point",
          "color": [1.0, 0.95, 0.9],
          "intensity": 400.0,
          "range": 4.0
        }
      ]
    }
  },
  "scene": 0,
  "scenes": [
    { "nodes": [0, 1, 2] }
  ],
  "nodes": [
    { "mesh": 0, "name": "FloorQuad" },
    {
      "mesh": 1,
      "name": "CeilingQuad",
      "translation": [0.0, 0.0, 0.25],
      "rotation": [1.0, 0.0, 0.0, 0.0]
    },
    {
      "name": "PointLight",
      "translation": [0.0, 0.0, 0.125],
      "extensions": {
        "KHR_lights_punctual": {
          "light": 0
        }
      }
    }
  ],
  "materials": [
    {
      "name": "FloorWhite",
      "pbrMetallicRoughness": {
        "baseColorFactor": [1.0, 1.0, 1.0, 1.0],
        "metallicFactor": 0.0,
        "roughnessFactor": 1.0
      }
    },
    {
      "name": "CeilingNormalMapped",
      "pbrMetallicRoughness": {
        "baseColorFactor": [1.0, 1.0, 1.0, 1.0],
        "metallicFactor": 0.0,
        "roughnessFactor": 1.0
      },
      "normalTexture": {
        "index": 0,
        "texCoord": 1,
        "scale": 1.0
      }
    }
  ],
  "meshes": [
    {
      "primitives": [
        {
          "attributes": {
            "POSITION": 0,
            "NORMAL": 1,
            "TANGENT": 2,
            "TEXCOORD_1": 3
          },
          "indices": 4,
          "material": 0,
          "mode": 4
        }
      ]
    },
    {
      "primitives": [
        {
          "attributes": {
            "POSITION": 5,
            "NORMAL": 6,
            "TANGENT": 7,
            "TEXCOORD_1": 8
          },
          "indices": 9,
          "material": 1,
          "mode": 4
        }
      ]
    }
  ],
  "textures": [
    { "source": 0 }
  ],
  "images": [
    { "uri": "quad_uv1_extreme_normal.bmp" }
  ],
  "buffers": [
    {
      "byteLength": 408,
      "uri": "quad_uv1_bounce_tangent.bin"
    }
  ],
  "bufferViews": [
    { "buffer": 0, "byteOffset": 0, "byteLength": 48, "target": 34962 },
    { "buffer": 0, "byteOffset": 48, "byteLength": 48, "target": 34962 },
    { "buffer": 0, "byteOffset": 96, "byteLength": 64, "target": 34962 },
    { "buffer": 0, "byteOffset": 160, "byteLength": 32, "target": 34962 },
    { "buffer": 0, "byteOffset": 192, "byteLength": 12, "target": 34963 },
    { "buffer": 0, "byteOffset": 204, "byteLength": 48, "target": 34962 },
    { "buffer": 0, "byteOffset": 252, "byteLength": 48, "target": 34962 },
    { "buffer": 0, "byteOffset": 300, "byteLength": 64, "target": 34962 },
    { "buffer": 0, "byteOffset": 364, "byteLength": 32, "target": 34962 },
    { "buffer": 0, "byteOffset": 396, "byteLength": 12, "target": 34963 }
  ],
  "accessors": [
    { "bufferView": 0, "componentType": 5126, "count": 4, "type": "VEC3", "min": [-1.0, -1.0, 0.0], "max": [1.0, 1.0, 0.0] },
    { "bufferView": 1, "componentType": 5126, "count": 4, "type": "VEC3" },
    { "bufferView": 2, "componentType": 5126, "count": 4, "type": "VEC4" },
    { "bufferView": 3, "componentType": 5126, "count": 4, "type": "VEC2", "min": [0.0, 0.0], "max": [0.5, 1.0] },
    { "bufferView": 4, "componentType": 5123, "count": 6, "type": "SCALAR" },
    { "bufferView": 5, "componentType": 5126, "count": 4, "type": "VEC3", "min": [-1.0, -1.0, 0.0], "max": [1.0, 1.0, 0.0] },
    { "bufferView": 6, "componentType": 5126, "count": 4, "type": "VEC3" },
    { "bufferView": 7, "componentType": 5126, "count": 4, "type": "VEC4" },
    { "bufferView": 8, "componentType": 5126, "count": 4, "type": "VEC2", "min": [0.5, 0.0], "max": [1.0, 1.0] },
    { "bufferView": 9, "componentType": 5123, "count": 6, "type": "SCALAR" }
  ]
}
